# xmcd
#
# Track frame offsets:
#	150
#	22061
#	34573
#	45847
#	61891
#	77813
#	98914
#	128971
#	153048
#	166676
#	184267
#	200416
#	227974
#
# Disc length: 3402 seconds
#
# Revision: 0
# Processed by: cddbd v1.5.1PL0 Copyright (c) Steve Scherf et al.
# Submitted via: dBpowerAMP V4.0
#
DISCID=9b0d480d
DTITLE=the hardcore bluesband - bluedögs in da house
DYEAR=2003
DGENRE=Blues
TTITLE0=like e bird in the sky
TTITLE1=i wonder who
TTITLE2=something's wrong
TTITLE3=we found no place in hell
TTITLE4=didi shuffle
TTITLE5=leave the road
TTITLE6=runaway blues
TTITLE7=stop on your way
TTITLE8=sunshine in your eyes
TTITLE9=blues came to this world
TTITLE10=bluedög boogie
TTITLE11=i love my baby
TTITLE12=DATA
EXTD=
EXTT0=
EXTT1=
EXTT2=
EXTT3=
EXTT4=
EXTT5=
EXTT6=
EXTT7=
EXTT8=
EXTT9=
EXTT10=
EXTT11=
EXTT12=
PLAYORDER=
